<?xml version="1.0" encoding="UTF-8" standalone="no"?>
<svg
        xmlns:dc="http://purl.org/dc/elements/1.1/"
        xmlns:cc="http://creativecommons.org/ns#"
        xmlns:rdf="http://www.w3.org/1999/02/22-rdf-syntax-ns#"
        xmlns:svg="http://www.w3.org/2000/svg"
        xmlns="http://www.w3.org/2000/svg"
        id="svg27"
        xml:space="preserve"
        viewBox="0 0 1024 768"
        y="0px"
        x="0px"
        version="1.1"><metadata
     id="metadata33"><rdf:RDF><cc:Work
         rdf:about=""><dc:format>image/svg+xml</dc:format><dc:type
        rdf:resource="http://purl.org/dc/dcmitype/StillImage" /></cc:Work></rdf:RDF></metadata><defs
        id="defs31" /><linearGradient
        y2="565.2551"
        x2="714.6448"
        y1="196.7104"
        x1="346.1001"
        gradientUnits="userSpaceOnUse"
        id="SVGID_1_"><stop
       id="stop2"
       style="stop-color:#FFFFFF"
       offset="0" /><stop
        id="stop4"
        style="stop-color:#000000"
        offset="1" /></linearGradient><g
        style="fill:#e8a070"
        transform="matrix(1.0051,0,0,1.0051,-2.598,-16.225)"
        id="logo-group"><path
       stroke-miterlimit="2"
       d="m 350.28,537.15 v -24.727 q 0,-0.49219 0.46875,-0.49219 h 2.6484 q 0.46875,0 0.51562,0.49219 l 0.44531,2.625 q 0.14055,-0.14063 0.375,-0.39844 0.25782,-0.25781 1.0312,-0.9375 0.79687,-0.67969 1.6641,-1.1719 2.25,-1.3125 4.9688,-1.3125 2.7188,0 4.8281,1.3125 2.1094,1.3125 3.2109,3.7266 0.6797,-1.0078 1.6641,-1.9922 0.98438,-0.98437 3,-2.0156 2.01562,-1.03123 4.2188,-1.0312 4.2656,0 6.7969,2.8828 2.5547,2.8594 2.5547,8.1562 v 14.883 q 0,0.46875 -0.46875,0.46875 h -3.375 q -0.46875,0 -0.46875,-0.46875 v -14.883 q 0,-3.7969 -1.5,-5.7422 -1.4766,-1.9453 -3.5859,-1.9453 -2.1094,0 -3.961,1.3125 -1.8516,1.2891 -2.7656,2.4375 -0.91406,1.1484 -0.91406,1.2891 v 17.531 q 0,0.46875 -0.46875,0.46875 h -3.375 q -0.46875,0 -0.46875,-0.46875 v -14.883 q 0,-3.7969 -1.5,-5.7422 -1.4766,-1.9453 -3.5859,-1.9453 -2.1094,0 -3.9609,1.3125 -1.8516,1.2891 -2.7656,2.4375 -0.91407,1.1484 -0.91407,1.2891 v 17.531 q 0,0.46875 -0.46875,0.46875 h -3.375 q -0.46875,0 -0.46875,-0.46875 z"
       style="font-variant-ligatures:none;stroke-width:0;stroke-miterlimit:2"
       id="path482505" /><path
        stroke-miterlimit="2"
        d="m 412.86,538.35 q -5.6016,0 -9.0469,-3.5156 -3.4219,-3.5391 -3.4219,-10.078 0,-6.5625 3.4219,-10.031 3.4453,-3.4922 9.0469,-3.4922 5.625,0 9.0469,3.4922 3.4453,3.4688 3.4453,10.031 0,6.5391 -3.4453,10.078 -3.4219,3.5156 -9.0469,3.5156 z m 0,-23.766 q -3.6328,0 -5.9062,2.5547 -2.25,2.5312 -2.25,7.5938 0,5.0625 2.25,7.6641 2.2734,2.5781 5.9062,2.5781 3.6562,0 5.9062,-2.5781 2.2734,-2.6016 2.2734,-7.6641 0,-5.0625 -2.2734,-7.5938 -2.25,-2.5547 -5.9062,-2.5547 z"
        style="font-variant-ligatures:none;stroke-width:0;stroke-miterlimit:2"
        id="path482507" /><path
        stroke-miterlimit="2"
        d="m 437.56,537.15 v -24.727 q 0,-0.49219 0.46875,-0.49219 h 2.6484 q 0.46875,0 0.51562,0.49219 l 0.44531,4.0781 0.375,-0.53906 q 0.25782,-0.32812 1.1719,-1.2188 0.9375,-0.89062 2.0625,-1.5234 1.1484,-0.65625 3,-1.1953 1.875,-0.5625 3.9375,-0.5625 h 1.9219 q 0.49219,0 0.49219,0.46875 v 2.8828 q 0,0.49219 -0.49219,0.49219 h -1.4297 q -2.3438,0 -4.3125,0.60938 -1.9688,0.58593 -3.1406,1.4297 -2.3672,1.7344 -3.0703,3.0938 l -0.28125,0.60938 v 16.102 q 0,0.46875 -0.46875,0.46875 h -3.375 q -0.46875,0 -0.46875,-0.46875 z"
        style="font-variant-ligatures:none;stroke-width:0;stroke-miterlimit:2"
        id="path482509" /><path
        stroke-miterlimit="2"
        d="m 474.83,538.4 q -5.2266,0 -8.6719,-3.5391 -3.4219,-3.5625 -3.4219,-10.102 0,-6.5625 3.4219,-10.031 3.4453,-3.4922 8.9766,-3.4922 5.5547,0 9.0469,3.5625 3.5156,3.5391 3.5156,9.3984 v 1.1953 q 0,0.96093 -0.96094,0.96093 h -19.641 q 0.39845,4.3594 2.5781,6.5156 2.1797,2.1562 5.5312,2.1562 5.2969,0 7.6875,-4.3125 0.28125,-0.46875 0.58594,-0.46875 h 3.0234 q 0.60938,0 0.46875,0.5625 -0.96093,3.4688 -3.9375,5.5312 -2.9766,2.0625 -8.2031,2.0625 z m -7.7344,-15.422 h 16.289 q -0.21094,-3.7734 -2.5781,-6.0703 -2.3672,-2.3203 -5.6484,-2.3203 -3.2578,0 -5.4609,2.1328 -2.2031,2.1328 -2.6016,6.2578 z"
        style="font-variant-ligatures:none;stroke-width:0;stroke-miterlimit:2"
        id="path482511" /><path
        stroke-miterlimit="2"
        d="m 514.34,545.05 v -32.625 q 0,-0.46875 0.46875,-0.49219 h 2.6484 q 0.46875,0 0.51563,0.49219 l 0.4453,2.625 q 0.25782,-0.39844 1.1719,-1.1953 0.9375,-0.82032 1.7812,-1.3125 2.1797,-1.3125 4.9688,-1.3125 5.1328,0 8.4375,3.4922 3.3281,3.4688 3.3281,10.031 0,6.5625 -3.4219,10.078 -3.3984,3.5156 -8.8359,3.5156 -1.8281,0 -3.6328,-0.375 -1.7812,-0.35156 -2.6953,-0.72656 l -0.8672,-0.35156 v 8.1562 q 0,0.46875 -0.46875,0.49219 h -3.375 q -0.46875,-0.0234 -0.46875,-0.49219 z m 4.3125,-11.508 q 3.1172,1.4297 6.8203,1.4297 3.7031,0 6,-2.5312 2.2969,-2.5547 2.2969,-7.6172 0,-5.0625 -2.1094,-7.6406 -2.1094,-2.6016 -5.5547,-2.6016 -3.3516,0 -6.1172,3.2344 -1.336,1.5469 -1.336,1.8047 z"
        style="font-variant-ligatures:none;stroke-width:0;stroke-miterlimit:2"
        id="path482513" /><path
        stroke-miterlimit="2"
        d="m 550.25,537.15 v -24.727 q 0,-0.49219 0.46875,-0.49219 h 2.6484 q 0.46875,0 0.51563,0.49219 l 0.4453,4.0781 0.375,-0.53906 q 0.25782,-0.32812 1.1719,-1.2188 0.9375,-0.89062 2.0625,-1.5234 1.1484,-0.65625 3,-1.1953 1.875,-0.5625 3.9375,-0.5625 h 1.9219 q 0.4922,0 0.4922,0.46875 v 2.8828 q 0,0.49219 -0.4922,0.49219 h -1.4297 q -2.3438,0 -4.3125,0.60938 -1.9688,0.58593 -3.1406,1.4297 -2.3672,1.7344 -3.0703,3.0938 l -0.28125,0.60938 v 16.102 q 0,0.46875 -0.46875,0.46875 h -3.375 q -0.46875,0 -0.46875,-0.46875 z"
        style="font-variant-ligatures:none;stroke-width:0;stroke-miterlimit:2"
        id="path482515" /><path
        stroke-miterlimit="2"
        d="m 587.89,538.35 q -5.6016,0 -9.0469,-3.5156 -3.4219,-3.5391 -3.4219,-10.078 0,-6.5625 3.4219,-10.031 3.4453,-3.4922 9.0469,-3.4922 5.625,0 9.0469,3.4922 3.4453,3.4688 3.4453,10.031 0,6.5391 -3.4453,10.078 -3.4219,3.5156 -9.0469,3.5156 z m 0,-23.766 q -3.6328,0 -5.9062,2.5547 -2.25,2.5312 -2.25,7.5938 0,5.0625 2.25,7.6641 2.2734,2.5781 5.9062,2.5781 3.6562,0 5.9062,-2.5781 2.2734,-2.6016 2.2734,-7.6641 0,-5.0625 -2.2734,-7.5938 -2.25,-2.5547 -5.9062,-2.5547 z"
        style="font-variant-ligatures:none;stroke-width:0;stroke-miterlimit:2"
        id="path482517" /><path
        stroke-miterlimit="2"
        d="m 612.1,537.15 v -23.297 q 0,-4.8047 2.8828,-7.6641 2.8828,-2.8828 8.1562,-2.8828 3.8438,0 6.2578,1.1484 0.46875,0.23437 0.46875,0.60937 v 2.3672 q 0,0.58594 -0.46875,0.375 -2.3906,-1.1484 -5.7656,-1.1484 -7.1953,0 -7.1953,7.1953 v 1.6875 h 9.7734 q 0.46875,0 0.49218,0.46875 v 2.4141 q 0,0.46875 -0.49218,0.46875 h -9.7734 v 18.258 q 0,0.46875 -0.49217,0.46875 h -3.3516 q -0.49217,0 -0.49217,-0.46875 z"
        style="font-variant-ligatures:none;stroke-width:0;stroke-miterlimit:2"
        id="path482519" /><path
        stroke-miterlimit="2"
        d="m 638.73,504.98 q 0,-0.96093 0.96092,-0.96093 h 3.1172 q 0.53905,0 0.75,0.23437 0.21093,0.21094 0.21093,0.72656 v 3.1172 q 0,0.53906 -0.21093,0.75 -0.21095,0.21094 -0.75,0.21094 h -3.1172 q -0.51562,0 -0.75,-0.21094 -0.21092,-0.21094 -0.21092,-0.75 z m 0.35155,32.18 v -24.727 q 0,-0.49219 0.46875,-0.49219 h 3.3516 q 0.49218,0 0.49218,0.49219 v 24.727 q 0,0.46875 -0.49218,0.46875 h -3.3516 q -0.46875,0 -0.46875,-0.46875 z"
        style="font-variant-ligatures:none;stroke-width:0;stroke-miterlimit:2"
        id="path482521" /><path
        stroke-miterlimit="2"
        d="m 657.41,527.78 v -23.273 q 0,-0.49218 0.46875,-0.49218 h 3.375 q 0.46875,0 0.46875,0.49218 v 7.4297 h 9.7969 q 0.46875,0 0.46875,0.49219 v 2.3906 q 0,0.49219 -0.46875,0.49219 h -9.7969 v 12.469 q 0,3.5625 1.6406,5.3906 1.6641,1.8047 4.5938,1.8047 2.5781,0 4.6172,-0.70312 l 0.67967,-0.25781 q 0.46875,-0.1875 0.46875,0.39843 v 2.3438 q 0,0.39844 -0.46875,0.63282 -2.414,0.96093 -5.7656,0.96093 -4.6172,0 -7.3594,-2.9062 -2.7188,-2.9062 -2.7188,-7.6641 z"
        style="font-variant-ligatures:none;stroke-width:0;stroke-miterlimit:2"
        id="path482523" /><path
        stroke-miterlimit="2"
        d="m 257.29,390.45 h 21.019 v 49.728 l 24.189,-24.13 h 24.424 l -32.115,30.177 34.639,35.579 h -25.47 l -25.66,-27.42 v 27.418 h -21.019 z"
        style="font-variant-ligatures:none;stroke-width:0;stroke-miterlimit:2"
        id="path482526" /><path
        stroke-miterlimit="2"
        d="m 371.86,452.22 q -6.5756,0 -9.9221,2.231 -3.2878,2.231 -3.2878,6.5756 0,3.9923 2.642,6.2821 2.7007,2.231 7.4563,2.231 5.9298,0 9.9809,-4.2272 4.051,-4.2859 4.051,-10.685 v -2.4072 z m 32.115,-7.926 v 37.516 h -21.2 v -9.746 q -4.2272,5.9885 -9.5112,8.7479 -5.284,2.7007 -12.858,2.7007 -10.216,0 -16.615,-5.9298 -6.3408,-5.9885 -6.3408,-15.5 0,-11.566 7.926,-16.967 7.9847,-5.4014 25.011,-5.4014 h 12.388 v -1.6439 q 0,-4.9904 -3.9336,-7.2802 -3.9336,-2.3484 -12.271,-2.3484 -6.7518,0 -12.564,1.3504 -5.8124,1.3504 -10.803,4.051 v -16.028 q 6.7518,-1.6439 13.562,-2.4659 6.8105,-0.88067 13.621,-0.88067 17.789,0 25.657,7.0453 7.926,6.9866 7.926,22.78 z"
        style="font-variant-ligatures:none;stroke-width:0;stroke-miterlimit:2"
        id="path482528" /><path
        stroke-miterlimit="2"
        d="m 463.64,468.25 q 6.7518,0 10.274,-4.9317 3.5814,-4.9317 3.5814,-14.325 0,-9.3938 -3.5814,-14.325 -3.5227,-4.9317 -10.274,-4.9317 -6.7518,0 -10.392,4.9904 -3.5814,4.9317 -3.5814,14.267 0,9.335 3.5814,14.325 3.6401,4.9317 10.392,4.9317 z m -13.973,-42.565 q 4.3446,-5.7537 9.6286,-8.4544 5.284,-2.7594 12.153,-2.7594 12.153,0 19.962,9.6873 7.8086,9.6286 7.8086,24.835 0,15.2064 -7.8086,24.893 -7.8086,9.6286 -19.962,9.6286 -6.8692,0 -12.153,-2.7007 -5.284,-2.7594 -9.6286,-8.5131 v 9.5112 h -21.019 v -91.354 h 21.019 z"
        style="font-variant-ligatures:none;stroke-width:0;stroke-miterlimit:2"
        id="path482530" /><path
        stroke-miterlimit="2"
        d="m 519.14,456.21 v -40.158 h 21.136 v 6.5756 q 0,5.3427 -0.0588,13.445 -0.0588,8.0434 -0.0588,10.744 0,7.926 0.41098,11.449 0.41097,3.464 1.4091,5.0491 1.2916,2.0549 3.3465,3.1704 2.1136,1.1155 4.8143,1.1155 6.5756,0 10.333,-5.0491 3.7575,-5.0491 3.7575,-14.032 v -32.467 h 21.019 v 65.756 h -21.02 v -9.5112 q -4.7556,5.7537 -10.098,8.5131 -5.284,2.7007 -11.683,2.7007 -11.39,0 -17.378,-6.9866 -5.9298,-6.9866 -5.9298,-20.314 z"
        style="font-variant-ligatures:none;stroke-width:0;stroke-miterlimit:2"
        id="path482532" /><path
        stroke-miterlimit="2"
        d="m 609.87,456.21 v -40.158 h 21.136 v 6.5756 q 0,5.3427 -0.0586,13.445 -0.0588,8.0434 -0.0588,10.744 0,7.926 0.41097,11.449 0.41099,3.464 1.4091,5.0491 1.2916,2.0549 3.3465,3.1704 2.1136,1.1155 4.8143,1.1155 6.5756,0 10.333,-5.0491 3.7575,-5.0491 3.7575,-14.032 v -32.467 h 21.019 v 65.756 h -21.019 v -9.5112 q -4.7556,5.7537 -10.098,8.5131 -5.284,2.7007 -11.683,2.7007 -11.39,0 -17.378,-6.9866 -5.9298,-6.9866 -5.9298,-20.314 z"
        style="font-variant-ligatures:none;stroke-width:0;stroke-miterlimit:2"
        id="path482534" /><path
        stroke-miterlimit="2"
        d="m 700.6,456.21 v -40.158 h 21.136 v 6.5756 q 0,5.3427 -0.0588,13.445 -0.0588,8.0434 -0.0588,10.744 0,7.926 0.41099,11.449 0.41097,3.464 1.4091,5.0491 1.2916,2.0549 3.3465,3.1704 2.1136,1.1155 4.8143,1.1155 6.5756,0 10.333,-5.0491 3.7575,-5.0491 3.7575,-14.032 v -32.467 h 21.018 v 65.756 h -21.018 v -9.5112 q -4.7556,5.7537 -10.098,8.5131 -5.284,2.7007 -11.683,2.7007 -11.39,0 -17.378,-6.9866 -5.9298,-6.9866 -5.9298,-20.314 z"
        style="font-variant-ligatures:none;stroke-width:0;stroke-miterlimit:2"
        id="path482536" /><path
        style="stroke-width:0.75"
        d="m 537.66,250.86 c -5.1946,0.003 -9.5108,0.0133 -9.591,0.0217 -0.0805,0.009 -0.30483,0.0446 -0.49874,0.0801 -0.19431,0.035 -0.53208,0.12093 -0.7506,0.19016 -0.21892,0.0692 -0.58546,0.21684 -0.8148,0.32734 -0.22934,0.11051 -0.54835,0.2894 -0.70889,0.39741 -0.16055,0.108 -0.44786,0.32859 -0.63885,0.48955 -0.19057,0.16138 -0.46912,0.43577 -0.61841,0.60965 -0.1497,0.17431 -0.36571,0.45704 -0.47997,0.62925 -0.11426,0.17181 -0.2994,0.5004 -0.41116,0.72975 -0.11218,0.22935 -0.2502,0.55753 -0.30733,0.72975 -0.0567,0.17181 -0.14511,0.50958 -0.19598,0.7506 -0.0705,0.33527 -0.0922,0.57963 -0.0926,1.0425 -4.2e-4,0.37781 0.0246,0.7456 0.0671,0.97995 0.0371,0.20642 0.11634,0.54419 0.17556,0.7506 0.0596,0.20642 0.19932,0.56629 0.31067,0.79943 0.11091,0.23352 0.29064,0.5617 0.39906,0.72975 0.10883,0.16805 0.31901,0.45161 0.46745,0.62967 0.14846,0.17848 0.40825,0.44494 0.57755,0.59256 0.1693,0.14761 0.44912,0.36404 0.62217,0.4808 0.17264,0.11634 0.47788,0.29399 0.67804,0.39407 0.20016,0.10008 0.52918,0.23977 0.731,0.31024 0.20183,0.0709 0.54919,0.17014 0.77145,0.22059 l 0.40449,0.0926 5.1604,0.0225 5.1604,0.0229 -10.759,10.759 -10.758,10.758 -5.8697,-5.863 c -3.7222,-3.7184 -5.999,-5.9618 -6.2237,-6.1332 -0.19474,-0.14886 -0.46704,-0.34611 -0.60465,-0.43827 -0.13761,-0.0922 -0.41908,-0.26229 -0.6255,-0.37821 -0.20641,-0.11634 -0.5471,-0.28648 -0.75683,-0.37864 -0.21016,-0.0922 -0.54793,-0.22643 -0.75059,-0.29858 -0.20308,-0.0717 -0.58464,-0.18431 -0.84863,-0.2502 -0.26354,-0.0659 -0.67637,-0.14928 -0.9174,-0.18556 -0.24061,-0.0363 -0.71933,-0.0776 -1.0634,-0.0913 -0.36237,-0.0146 -0.84488,-0.005 -1.1468,0.0225 -0.28648,0.0263 -0.72099,0.0855 -0.9645,0.13136 -0.24394,0.0455 -0.64593,0.13969 -0.89325,0.20933 -0.24728,0.0696 -0.65135,0.20892 -0.89783,0.30983 -0.24645,0.10092 -0.60256,0.26105 -0.79184,0.35612 -0.18891,0.0951 -0.51249,0.2773 -0.71891,0.40532 -0.20642,0.12761 -0.56504,0.37322 -0.7965,0.54544 -0.3361,0.25062 -2.9507,2.841 -13.028,12.91 -7.2437,7.2374 -12.717,12.739 -12.866,12.93 -0.14261,0.18348 -0.30816,0.41032 -0.36821,0.50415 -0.0601,0.0938 -0.1839,0.319 -0.2748,0.5004 -0.0913,0.18139 -0.22435,0.4954 -0.29565,0.69723 -0.0713,0.20224 -0.17097,0.55878 -0.22185,0.7923 -0.0763,0.35236 -0.0917,0.55669 -0.0917,1.1964 0,0.63967 0.0154,0.84397 0.0917,1.1964 0.0509,0.23352 0.15055,0.59005 0.22185,0.7923 0.0713,0.20183 0.20516,0.5175 0.2969,0.70098 0.0922,0.18348 0.2819,0.50248 0.42159,0.7089 0.14095,0.2085 0.45828,0.58046 0.7139,0.83692 0.29899,0.29983 0.60716,0.55878 0.8799,0.73935 0.23144,0.15303 0.60006,0.36237 0.81938,0.46495 0.21976,0.10259 0.58422,0.24103 0.81022,0.30816 0.22602,0.0667 0.5517,0.1472 0.7235,0.1789 0.1939,0.0355 0.58963,0.0559 1.0425,0.0538 0.58129,-0.002 0.81187,-0.0213 1.1334,-0.0917 0.22226,-0.0487 0.55044,-0.13761 0.72975,-0.19807 0.17931,-0.0601 0.48455,-0.18348 0.67804,-0.27397 0.19391,-0.0905 0.54085,-0.28898 0.77145,-0.44035 l 0.4155,-0.2775 11.624,-11.616 11.624,-11.618 5.8905,5.883 c 4.489,4.4836 5.9852,5.954 6.29,6.1796 0.21975,0.16305 0.55002,0.38947 0.73392,0.50373 0.18348,0.11385 0.54335,0.31275 0.79897,0.44202 0.25562,0.12927 0.66678,0.31067 0.9132,0.40324 0.24645,0.0926 0.69306,0.23144 0.99203,0.30816 0.29899,0.0763 0.75855,0.17264 1.0216,0.2135 0.34778,0.0538 0.72183,0.0742 1.3744,0.0742 0.6526,0 1.0267,-0.0204 1.3744,-0.0742 0.26312,-0.0409 0.72766,-0.13844 1.0324,-0.21642 0.30483,-0.078 0.771,-0.22684 1.0363,-0.33026 0.26522,-0.10383 0.68889,-0.2944 0.942,-0.42409 0.25312,-0.12927 0.63176,-0.34777 0.8415,-0.48497 0.21018,-0.13761 0.54169,-0.37238 0.73643,-0.52167 0.22768,-0.17472 4.5908,-4.5061 12.206,-12.117 l 11.852,-11.846 0.0137,5.1066 0.0137,5.1066 0.0888,0.38698 c 0.0492,0.21309 0.14012,0.54127 0.20225,0.72975 0.0625,0.18848 0.18431,0.49748 0.27147,0.68638 0.0867,0.18891 0.26479,0.50791 0.39531,0.7089 0.13052,0.201 0.35987,0.51041 0.50874,0.68722 0.14928,0.17723 0.39531,0.43202 0.54711,0.56587 0.15178,0.13386 0.37946,0.319 0.5054,0.41158 0.12635,0.0926 0.37947,0.2552 0.56295,0.36154 0.18348,0.10675 0.49331,0.26104 0.68805,0.3436 0.19515,0.0822 0.56253,0.20308 0.8169,0.26897 0.25396,0.0655 0.66178,0.14094 0.90615,0.16722 0.33068,0.0354 0.57546,0.0359 0.96075,8.2e-4 0.2848,-0.0258 0.70264,-0.0917 0.92865,-0.14678 0.22643,-0.055 0.53876,-0.14846 0.69388,-0.20725 0.15512,-0.0588 0.4366,-0.18431 0.6255,-0.27897 0.18891,-0.0951 0.45578,-0.24812 0.59339,-0.34069 0.13762,-0.0926 0.39615,-0.28898 0.57421,-0.4366 0.17848,-0.14761 0.44494,-0.40699 0.59256,-0.57629 0.14762,-0.1693 0.36488,-0.45036 0.48247,-0.62467 0.11759,-0.1743 0.30399,-0.49831 0.4145,-0.72015 0.11009,-0.22143 0.25729,-0.58172 0.32693,-0.80063 0.0692,-0.2185 0.16054,-0.56587 0.20224,-0.77145 l 0.075,-0.375 v -19.808 l -0.0755,-0.5004 c -0.0417,-0.27522 -0.12217,-0.72183 -0.17931,-0.99285 -0.0571,-0.27063 -0.18806,-0.7539 -0.29106,-1.0733 -0.103,-0.31984 -0.27105,-0.78233 -0.37405,-1.0279 -0.103,-0.24561 -0.30066,-0.66303 -0.43952,-0.92782 -0.13927,-0.2648 -0.4074,-0.71641 -0.59631,-1.0029 -0.1889,-0.2869 -0.50165,-0.71808 -0.69513,-0.95865 -0.1935,-0.2402 -0.55795,-0.64552 -0.81023,-0.89985 -0.25228,-0.25437 -0.62967,-0.6034 -0.83858,-0.77603 -0.20891,-0.17263 -0.53959,-0.42742 -0.73516,-0.56629 -0.19558,-0.13886 -0.54085,-0.36445 -0.76725,-0.50123 -0.22602,-0.13636 -0.5838,-0.33485 -0.7944,-0.44077 -0.211,-0.1055 -0.54877,-0.26062 -0.7506,-0.34444 -0.20224,-0.0838 -0.55503,-0.21726 -0.78435,-0.29607 -0.22935,-0.0792 -0.62341,-0.19724 -0.8757,-0.26188 -0.25229,-0.0651 -0.69305,-0.15721 -0.97995,-0.20475 -0.28648,-0.048 -0.73684,-0.10591 -1.0008,-0.12844 -0.30441,-0.0267 -3.9323,-0.0396 -9.9248,-0.0354 z m 15.11,48.014 c -0.24853,-0.0104 -0.60173,-0.002 -0.78525,0.0179 -0.18348,0.0205 -0.51166,0.0776 -0.72975,0.12761 -0.21767,0.0496 -0.52751,0.13719 -0.68805,0.19474 -0.16055,0.0575 -0.44202,0.17931 -0.6255,0.27105 -0.18348,0.0917 -0.46496,0.25145 -0.6255,0.35487 -0.16055,0.10341 -0.43868,0.31024 -0.61841,0.45994 -0.17973,0.14929 -0.4537,0.41867 -0.60882,0.59798 -0.15513,0.17931 -0.3728,0.46079 -0.4833,0.62592 -0.11093,0.16513 -0.28982,0.47955 -0.3974,0.69972 -0.10801,0.21976 -0.24687,0.55378 -0.30858,0.74226 -0.0617,0.18849 -0.15263,0.51667 -0.20225,0.72975 l -0.0897,0.38698 -0.0217,14.199 -0.0221,14.199 -0.10925,0.31984 c -0.0601,0.17556 -0.18014,0.44786 -0.2673,0.60465 -0.0959,0.17264 -0.29106,0.41742 -0.4954,0.62216 -0.20474,0.20433 -0.44951,0.39949 -0.62216,0.4954 -0.15679,0.0872 -0.42909,0.20725 -0.60465,0.2673 l -0.31984,0.10925 -5.5348,0.0113 -5.5348,0.0117 -0.0125,-8.6018 -0.0125,-8.6018 -0.0897,-0.38698 c -0.0492,-0.21308 -0.14053,-0.54126 -0.20266,-0.72975 -0.0625,-0.18848 -0.18431,-0.49748 -0.27147,-0.68637 -0.0867,-0.18891 -0.26437,-0.50791 -0.39531,-0.7089 -0.13052,-0.201 -0.36654,-0.51792 -0.52458,-0.70473 -0.15805,-0.18682 -0.40449,-0.44244 -0.54753,-0.56796 -0.14303,-0.12552 -0.40991,-0.33569 -0.59339,-0.46746 -0.18348,-0.13177 -0.54001,-0.34027 -0.7923,-0.46329 -0.25228,-0.12301 -0.62758,-0.27813 -0.834,-0.34443 -0.20641,-0.0663 -0.55336,-0.15471 -0.77145,-0.19641 -0.26646,-0.0505 -0.58714,-0.0751 -0.97995,-0.0743 -0.35028,4.2e-4 -0.73392,0.0275 -0.9591,0.0679 -0.20641,0.0371 -0.54418,0.11634 -0.7506,0.17556 -0.20641,0.0596 -0.56629,0.19932 -0.79935,0.31066 -0.23352,0.11092 -0.5617,0.29065 -0.72975,0.39907 -0.16805,0.10883 -0.45244,0.31984 -0.63217,0.46954 -0.17973,0.14928 -0.4537,0.41867 -0.60882,0.59798 -0.15513,0.17931 -0.3728,0.46078 -0.4833,0.62591 -0.11093,0.16514 -0.28982,0.47955 -0.39741,0.69973 -0.108,0.21976 -0.24686,0.55378 -0.30858,0.74226 -0.0617,0.18848 -0.15262,0.51667 -0.20182,0.72975 l -0.0897,0.38698 -0.0125,8.6632 -0.0125,8.6632 h -13.508 l -0.0121,-13.104 -0.0117,-13.104 -0.0901,-0.38698 c -0.0496,-0.21308 -0.14095,-0.54127 -0.20308,-0.72975 -0.0626,-0.18848 -0.18431,-0.49748 -0.27147,-0.68638 -0.0867,-0.1889 -0.26437,-0.50791 -0.39531,-0.7089 -0.13053,-0.201 -0.36947,-0.52125 -0.53085,-0.71224 -0.16137,-0.19056 -0.43576,-0.46912 -0.60965,-0.61841 -0.17431,-0.1497 -0.47413,-0.37613 -0.6672,-0.50332 -0.19265,-0.1276 -0.52125,-0.31275 -0.73017,-0.41157 -0.20933,-0.0988 -0.54877,-0.23478 -0.7548,-0.3015 -0.20599,-0.0671 -0.55252,-0.15554 -0.77062,-0.19724 -0.26646,-0.0505 -0.58714,-0.0751 -0.97995,-0.0743 -0.35028,4.2e-4 -0.73392,0.0275 -0.9591,0.0679 -0.20642,0.0371 -0.54419,0.11634 -0.7506,0.17556 -0.20642,0.0596 -0.56629,0.19932 -0.79943,0.31067 -0.23352,0.11091 -0.5617,0.29064 -0.72975,0.39906 -0.16805,0.10884 -0.45244,0.31984 -0.63217,0.46954 -0.17973,0.14929 -0.4537,0.41867 -0.60882,0.59798 -0.15513,0.17931 -0.3728,0.46079 -0.4833,0.62592 -0.11093,0.16513 -0.28982,0.47955 -0.39741,0.69972 -0.108,0.21976 -0.24686,0.55378 -0.30858,0.74226 -0.0617,0.18849 -0.15262,0.51667 -0.20224,0.72975 l -0.0901,0.38698 -0.0117,13.168 -0.0121,13.168 -5.5348,-0.0117 -5.5352,-0.0112 -0.31984,-0.10925 c -0.17556,-0.0601 -0.44785,-0.18014 -0.60465,-0.2673 -0.17263,-0.0959 -0.41742,-0.29107 -0.62216,-0.4954 -0.20433,-0.20474 -0.39949,-0.44952 -0.4954,-0.62216 -0.0872,-0.15679 -0.20724,-0.42909 -0.26688,-0.60465 l -0.10884,-0.31984 -0.0242,-4.3785 -0.0238,-4.3785 -0.088,-0.38698 c -0.0488,-0.21308 -0.13928,-0.54126 -0.20141,-0.72975 -0.0625,-0.18848 -0.18432,-0.49748 -0.27147,-0.68637 -0.0867,-0.18891 -0.26438,-0.50791 -0.39532,-0.7089 -0.13052,-0.201 -0.36654,-0.51792 -0.52459,-0.70473 -0.15804,-0.18682 -0.40449,-0.44244 -0.54752,-0.56796 -0.14303,-0.12552 -0.40991,-0.33569 -0.59339,-0.46746 -0.18348,-0.13177 -0.54002,-0.34027 -0.7923,-0.46329 -0.25229,-0.12301 -0.62759,-0.27813 -0.834,-0.34443 -0.20642,-0.0663 -0.55336,-0.15471 -0.77145,-0.19641 -0.26646,-0.0505 -0.58714,-0.0751 -0.97995,-0.0743 -0.35028,4.2e-4 -0.73392,0.0275 -0.9591,0.0679 -0.20642,0.0371 -0.54419,0.11634 -0.7506,0.17556 -0.20642,0.0596 -0.56629,0.19932 -0.79943,0.31066 -0.23352,0.11092 -0.5617,0.29065 -0.72975,0.39907 -0.16805,0.10883 -0.45244,0.31984 -0.63217,0.46954 -0.17973,0.14928 -0.4537,0.41867 -0.60882,0.59798 -0.15513,0.17931 -0.3728,0.46078 -0.4833,0.62591 -0.11093,0.16514 -0.29024,0.47955 -0.39824,0.69973 -0.10842,0.21976 -0.25395,0.57838 -0.32359,0.79732 -0.0692,0.21852 -0.16055,0.56588 -0.20225,0.77145 l -0.0863,0.3825 v 9.3825 l 0.0751,0.5838 c 0.0417,0.32109 0.13928,0.90278 0.21767,1.2927 0.0784,0.3899 0.21935,0.96158 0.31317,1.2702 0.0938,0.30858 0.23727,0.74018 0.31901,0.9591 0.0813,0.21893 0.24978,0.62425 0.37405,0.90075 0.12384,0.27689 0.35403,0.73893 0.51124,1.027 0.1568,0.28815 0.44411,0.7656 0.63801,1.0609 0.19391,0.29524 0.50624,0.7335 0.69431,0.97372 0.18765,0.24061 0.54043,0.65553 0.78315,0.9228 0.24311,0.2673 0.66052,0.68472 0.92782,0.92783 0.2673,0.24269 0.68222,0.59547 0.9228,0.78315 0.2402,0.18807 0.67179,0.4954 0.95828,0.68347 0.28689,0.18806 0.69681,0.44034 0.91117,0.56086 0.21434,0.12051 0.63676,0.33652 0.93825,0.47996 0.30149,0.14346 0.77438,0.34653 1.0504,0.4512 0.27647,0.10467 0.72683,0.25812 1.0008,0.34152 0.27439,0.083 0.75188,0.20767 1.0612,0.27689 0.30983,0.0692 0.80355,0.16139 1.0979,0.20475 0.29398,0.043 0.81022,0.0988 1.1468,0.12343 0.43368,0.0321 9.3878,0.0412 30.74,0.0317 l 30.128,-0.0134 0.63967,-0.093 c 0.35153,-0.0513 0.83025,-0.13261 1.0634,-0.18057 0.23311,-0.0479 0.63009,-0.14094 0.88238,-0.20641 0.25228,-0.065 0.70389,-0.20266 1.0033,-0.30524 0.2994,-0.10258 0.76853,-0.28273 1.0425,-0.40032 0.27397,-0.1176 0.74184,-0.34069 1.04,-0.49581 0.29815,-0.15513 0.71473,-0.38948 0.92535,-0.52042 0.211,-0.13052 0.59881,-0.39198 0.86235,-0.58046 0.26313,-0.18891 0.67262,-0.50541 0.90945,-0.70348 0.23643,-0.19808 0.61882,-0.54544 0.84945,-0.77145 0.2306,-0.22602 0.5838,-0.59756 0.78562,-0.82568 0.20141,-0.2281 0.52501,-0.62592 0.71849,-0.88402 0.19391,-0.25813 0.51208,-0.71891 0.70724,-1.0241 0.19474,-0.30483 0.53084,-0.91117 0.74601,-1.3469 0.21559,-0.43577 0.4858,-1.0458 0.60007,-1.3552 0.11467,-0.30983 0.27522,-0.78983 0.35736,-1.0671 0.0817,-0.27689 0.20559,-0.771 0.2748,-1.098 0.0692,-0.32651 0.16764,-0.89737 0.21893,-1.2681 l 0.093,-0.67429 v -28.815 l -0.0759,-0.37363 c -0.0417,-0.20558 -0.13344,-0.55294 -0.2035,-0.77145 -0.07,-0.21893 -0.19849,-0.55253 -0.28606,-0.74142 -0.0872,-0.18891 -0.26521,-0.50791 -0.39615,-0.7089 -0.13052,-0.201 -0.36654,-0.51792 -0.52458,-0.70473 -0.15805,-0.18682 -0.4045,-0.44244 -0.54753,-0.56796 -0.14303,-0.12552 -0.40991,-0.33569 -0.59339,-0.46745 -0.18348,-0.13178 -0.54001,-0.33986 -0.7923,-0.46246 -0.25228,-0.12302 -0.60799,-0.27272 -0.79065,-0.33318 -0.18264,-0.0605 -0.51415,-0.14553 -0.73684,-0.18849 -0.22267,-0.0433 -0.60798,-0.0872 -0.8565,-0.0976 z"
        id="icon" /></g><path
        id="path25"
        style="mix-blend-mode: overlay; opacity: 0.5"
        d="m537.79 235.91c-5.22 0.01-9.55 0.02-9.63 0.02-0.08 0.01-0.31 0.05-0.51 0.09-0.19 0.03-0.53 0.12-0.75 0.19-0.22 0.06-0.59 0.21-0.82 0.33-0.23 0.11-0.55 0.29-0.71 0.39-0.16 0.11-0.45 0.33-0.64 0.5-0.19 0.16-0.47 0.43-0.62 0.61-0.15 0.17-0.37 0.46-0.49 0.63-0.11 0.17-0.3 0.5-0.41 0.73s-0.25 0.57-0.31 0.74-0.15 0.51-0.2 0.75c-0.07 0.34-0.09 0.59-0.09 1.05 0 0.38 0.03 0.75 0.07 0.99 0.04 0.2 0.11 0.54 0.17 0.75s0.2 0.57 0.32 0.8c0.11 0.24 0.29 0.57 0.4 0.74s0.32 0.45 0.47 0.63 0.41 0.45 0.58 0.6c0.17 0.14 0.45 0.36 0.62 0.48 0.18 0.12 0.48 0.29 0.68 0.39 0.21 0.1 0.54 0.25 0.74 0.32s0.55 0.17 0.78 0.22l0.4 0.09 5.19 0.02 5.18 0.03-10.81 10.81-10.81 10.81-5.9-5.89c-3.74-3.74-6.03-5.99-6.26-6.16-0.19-0.15-0.47-0.35-0.6-0.45-0.14-0.09-0.43-0.26-0.63-0.37-0.21-0.12-0.55-0.29-0.76-0.38-0.22-0.1-0.55-0.23-0.76-0.31-0.2-0.07-0.58-0.18-0.85-0.25-0.26-0.06-0.68-0.15-0.92-0.18-0.25-0.04-0.73-0.08-1.07-0.09-0.37-0.02-0.85-0.01-1.15 0.02-0.29 0.02-0.73 0.08-0.97 0.13-0.25 0.05-0.65 0.14-0.9 0.21s-0.66 0.21-0.9 0.31c-0.25 0.1-0.61 0.26-0.8 0.36-0.19 0.09-0.51 0.28-0.72 0.41-0.21 0.12-0.57 0.37-0.8 0.55-0.34 0.25-2.97 2.85-13.1 12.97-7.28 7.27-12.78 12.8-12.93 13-0.14 0.18-0.31 0.41-0.37 0.5-0.06 0.1-0.18 0.32-0.27 0.51-0.1 0.18-0.23 0.49-0.3 0.7-0.07 0.2-0.17 0.56-0.23 0.79-0.07 0.36-0.09 0.56-0.09 1.21 0 0.64 0.02 0.84 0.09 1.2 0.06 0.23 0.16 0.59 0.23 0.79 0.07 0.21 0.2 0.52 0.3 0.71 0.09 0.18 0.28 0.5 0.42 0.71s0.46 0.58 0.72 0.84c0.3 0.3 0.61 0.56 0.88 0.75 0.23 0.15 0.6 0.36 0.83 0.46 0.22 0.1 0.58 0.24 0.81 0.31s0.55 0.15 0.73 0.18c0.19 0.04 0.59 0.06 1.05 0.06 0.58-0.01 0.81-0.03 1.13-0.1 0.23-0.05 0.56-0.14 0.74-0.2s0.48-0.18 0.68-0.27c0.19-0.09 0.54-0.29 0.77-0.44l0.42-0.28 11.68-11.68 11.69-11.67 5.92 5.91c4.51 4.5 6.01 5.98 6.32 6.21 0.22 0.16 0.55 0.39 0.74 0.51 0.18 0.11 0.54 0.31 0.8 0.44s0.67 0.31 0.92 0.41c0.25 0.09 0.69 0.23 0.99 0.31 0.3 0.07 0.77 0.17 1.03 0.21 0.35 0.05 0.73 0.07 1.38 0.07 0.66 0 1.04-0.02 1.38-0.07 0.27-0.04 0.74-0.14 1.04-0.22 0.31-0.08 0.78-0.22 1.04-0.33 0.27-0.1 0.7-0.29 0.95-0.42s0.64-0.35 0.85-0.49 0.54-0.38 0.74-0.53c0.23-0.17 4.61-4.53 12.26-12.18l11.92-11.9 0.01 5.13 0.01 5.13 0.09 0.39c0.05 0.22 0.14 0.55 0.21 0.74 0.06 0.19 0.18 0.5 0.27 0.69s0.26 0.51 0.4 0.71c0.13 0.2 0.36 0.51 0.51 0.69s0.39 0.43 0.55 0.57c0.15 0.13 0.38 0.32 0.51 0.41 0.12 0.09 0.38 0.26 0.56 0.37 0.19 0.1 0.5 0.26 0.69 0.34 0.2 0.08 0.57 0.2 0.82 0.27 0.26 0.07 0.67 0.14 0.91 0.17 0.34 0.03 0.58 0.03 0.97 0 0.29-0.03 0.71-0.09 0.93-0.15 0.23-0.05 0.54-0.15 0.7-0.21s0.44-0.18 0.63-0.28c0.19-0.09 0.46-0.25 0.6-0.34s0.39-0.29 0.57-0.44 0.45-0.41 0.6-0.58 0.37-0.45 0.48-0.63c0.12-0.17 0.31-0.5 0.42-0.72s0.26-0.58 0.33-0.8 0.16-0.57 0.2-0.78l0.08-0.38v-19.9l-0.08-0.51c-0.04-0.27-0.12-0.72-0.18-0.99-0.06-0.28-0.19-0.76-0.29-1.08-0.1-0.33-0.27-0.79-0.38-1.04-0.1-0.24-0.3-0.66-0.44-0.93-0.14-0.26-0.41-0.72-0.6-1.01-0.19-0.28-0.5-0.72-0.7-0.96-0.19-0.24-0.56-0.65-0.81-0.91-0.26-0.25-0.63-0.6-0.84-0.77-0.21-0.18-0.55-0.43-0.74-0.57-0.2-0.14-0.55-0.37-0.77-0.51-0.23-0.13-0.59-0.33-0.8-0.44s-0.55-0.26-0.76-0.35c-0.2-0.08-0.55-0.22-0.79-0.3-0.23-0.07-0.62-0.19-0.88-0.26-0.25-0.06-0.69-0.16-0.98-0.2-0.29-0.05-0.74-0.11-1.01-0.13-0.3-0.03-3.95-0.04-9.97-0.04zm15.19 48.26c-0.25-0.01-0.6 0-0.79 0.02-0.18 0.02-0.51 0.08-0.73 0.13s-0.53 0.13-0.69 0.19-0.45 0.18-0.63 0.28c-0.19 0.09-0.47 0.25-0.63 0.35s-0.44 0.31-0.62 0.46-0.46 0.42-0.61 0.61c-0.16 0.18-0.38 0.46-0.49 0.62-0.11 0.17-0.29 0.49-0.4 0.71s-0.25 0.55-0.31 0.74-0.15 0.52-0.2 0.74l-0.09 0.39-0.02 14.27-0.03 14.27-0.11 0.32c-0.06 0.18-0.18 0.45-0.26 0.61-0.1 0.17-0.3 0.42-0.5 0.62-0.21 0.21-0.45 0.4-0.63 0.5-0.16 0.09-0.43 0.21-0.61 0.27l-0.32 0.11-5.56 0.01-5.56 0.01-0.02-8.64-0.01-8.65-0.09-0.39c-0.05-0.21-0.14-0.54-0.2-0.73-0.07-0.19-0.19-0.5-0.27-0.69-0.09-0.19-0.27-0.51-0.4-0.71-0.13-0.21-0.37-0.53-0.53-0.71-0.16-0.19-0.41-0.45-0.55-0.57-0.14-0.13-0.41-0.34-0.6-0.47-0.18-0.13-0.54-0.35-0.79-0.47-0.26-0.12-0.63-0.28-0.84-0.34-0.21-0.07-0.56-0.16-0.78-0.2-0.26-0.05-0.59-0.08-0.98-0.08-0.35 0-0.74 0.03-0.97 0.07-0.2 0.04-0.54 0.12-0.75 0.18s-0.57 0.2-0.8 0.31c-0.24 0.11-0.57 0.29-0.74 0.4s-0.45 0.32-0.63 0.47-0.46 0.42-0.61 0.61c-0.16 0.18-0.38 0.46-0.49 0.62-0.11 0.17-0.29 0.49-0.4 0.71s-0.25 0.55-0.31 0.74-0.15 0.52-0.2 0.74l-0.09 0.38-0.02 8.71-0.01 8.71h-13.57l-0.01-13.17-0.02-13.17-0.09-0.39c-0.05-0.21-0.14-0.55-0.2-0.73-0.06-0.19-0.19-0.5-0.27-0.69-0.09-0.19-0.27-0.51-0.4-0.72-0.13-0.2-0.37-0.52-0.54-0.71-0.16-0.19-0.43-0.47-0.61-0.62-0.17-0.15-0.48-0.38-0.67-0.51s-0.52-0.31-0.73-0.41-0.55-0.24-0.76-0.31c-0.21-0.06-0.56-0.15-0.78-0.19-0.26-0.06-0.59-0.08-0.98-0.08-0.35 0-0.74 0.03-0.96 0.07-0.21 0.04-0.55 0.12-0.76 0.18s-0.57 0.2-0.8 0.31c-0.24 0.11-0.57 0.29-0.74 0.4-0.16 0.11-0.45 0.32-0.63 0.47s-0.46 0.42-0.61 0.6c-0.16 0.18-0.38 0.47-0.49 0.63-0.11 0.17-0.29 0.48-0.4 0.7-0.11 0.23-0.25 0.56-0.31 0.75s-0.15 0.52-0.2 0.73l-0.09 0.39-0.01 13.24-0.02 13.23-5.56-0.01-5.56-0.01-0.32-0.11c-0.18-0.06-0.45-0.18-0.61-0.27-0.18-0.1-0.42-0.29-0.63-0.5-0.2-0.2-0.4-0.45-0.49-0.62-0.09-0.16-0.21-0.43-0.27-0.61l-0.11-0.32-0.03-4.4-0.02-4.4-0.09-0.39c-0.05-0.22-0.14-0.55-0.2-0.74s-0.19-0.5-0.28-0.69c-0.08-0.19-0.26-0.51-0.39-0.71s-0.37-0.52-0.53-0.71c-0.16-0.18-0.41-0.44-0.55-0.57-0.14-0.12-0.41-0.33-0.6-0.47-0.18-0.13-0.54-0.34-0.79-0.46-0.26-0.13-0.63-0.28-0.84-0.35s-0.56-0.15-0.78-0.2c-0.26-0.05-0.59-0.07-0.98-0.07-0.35 0-0.74 0.03-0.96 0.07-0.21 0.03-0.55 0.11-0.76 0.17s-0.57 0.2-0.8 0.32c-0.24 0.11-0.57 0.29-0.74 0.4-0.16 0.11-0.45 0.32-0.63 0.47s-0.46 0.42-0.61 0.6c-0.16 0.18-0.38 0.46-0.49 0.63s-0.29 0.48-0.4 0.7-0.25 0.58-0.32 0.8-0.17 0.57-0.21 0.78l-0.08 0.38v9.43l0.07 0.59c0.04 0.32 0.14 0.91 0.22 1.3s0.22 0.97 0.31 1.28c0.1 0.31 0.24 0.74 0.33 0.96 0.08 0.22 0.25 0.63 0.37 0.91 0.13 0.27 0.36 0.74 0.51 1.03 0.16 0.29 0.45 0.77 0.65 1.06 0.19 0.3 0.51 0.74 0.69 0.98 0.19 0.24 0.55 0.66 0.79 0.93 0.25 0.27 0.66 0.69 0.93 0.93 0.27 0.25 0.69 0.6 0.93 0.79s0.68 0.5 0.96 0.69c0.29 0.19 0.7 0.44 0.92 0.56s0.64 0.34 0.94 0.48c0.31 0.15 0.78 0.35 1.06 0.46 0.28 0.1 0.73 0.26 1.01 0.34 0.27 0.08 0.75 0.21 1.06 0.28s0.81 0.16 1.11 0.2c0.29 0.05 0.81 0.1 1.15 0.13 0.43 0.03 9.43 0.04 30.89 0.03l30.29-0.01 0.64-0.1c0.35-0.05 0.83-0.13 1.07-0.18 0.23-0.05 0.63-0.14 0.88-0.21 0.26-0.06 0.71-0.2 1.01-0.3 0.3-0.11 0.77-0.29 1.05-0.41 0.28-0.11 0.75-0.34 1.04-0.49 0.3-0.16 0.72-0.4 0.93-0.53 0.22-0.13 0.61-0.39 0.87-0.58 0.27-0.19 0.68-0.51 0.92-0.71 0.23-0.2 0.62-0.55 0.85-0.77 0.23-0.23 0.59-0.6 0.79-0.83s0.53-0.63 0.72-0.89c0.2-0.26 0.52-0.72 0.71-1.03 0.2-0.31 0.54-0.92 0.75-1.35 0.22-0.44 0.49-1.06 0.61-1.37 0.11-0.31 0.27-0.79 0.35-1.07 0.09-0.28 0.21-0.77 0.28-1.1s0.17-0.9 0.22-1.28l0.09-0.67v-28.97l-0.07-0.37c-0.05-0.21-0.14-0.56-0.21-0.78s-0.2-0.55-0.28-0.74c-0.09-0.19-0.27-0.51-0.4-0.71-0.13-0.21-0.37-0.53-0.53-0.71-0.16-0.19-0.41-0.45-0.55-0.57-0.14-0.13-0.41-0.34-0.6-0.47-0.18-0.14-0.54-0.35-0.79-0.47-0.26-0.12-0.61-0.27-0.8-0.33-0.18-0.06-0.51-0.15-0.74-0.19-0.22-0.05-0.61-0.09-0.86-0.1l0.01-0.01zm-296.98 92.04v91.82h21.12v-27.56l25.79 27.56h25.61l-34.81-35.76 32.27-30.33h-24.54l-24.32 24.25v-49.98h-21.12zm172.23 0v91.82h21.12v-9.56c2.91 3.85 6.14 6.71 9.68 8.56 3.54 1.81 7.61 2.71 12.21 2.71 8.15 0 14.84-3.23 20.07-9.68 5.23-6.49 7.85-14.83 7.85-25.02s-2.62-18.51-7.85-24.96c-5.23-6.49-11.92-9.73-20.07-9.73-4.6 0-8.67 0.92-12.21 2.77-3.54 1.81-6.77 4.64-9.68 8.5v-35.41h-21.12zm-58.56 24.14c-4.56 0-9.13 0.29-13.69 0.88-4.56 0.55-9.11 1.38-13.63 2.48v16.11c3.34-1.81 6.96-3.17 10.86-4.07 3.89-0.91 8.1-1.36 12.63-1.36 5.58 0 9.69 0.79 12.33 2.36 2.63 1.53 3.95 3.97 3.95 7.32v1.65h-12.45c-11.41 0-19.79 1.81-25.14 5.43-5.31 3.62-7.96 9.3-7.96 17.05 0 6.37 2.12 11.57 6.37 15.58 4.29 3.97 9.85 5.96 16.7 5.96 5.07 0 9.38-0.9 12.92-2.71 3.54-1.85 6.73-4.78 9.56-8.8v9.8h21.3v-37.71c0-10.58-2.65-18.21-7.96-22.89-5.27-4.72-13.87-7.08-25.79-7.08zm149.51 1.59v40.36c0 8.93 1.99 15.74 5.96 20.42 4.01 4.68 9.83 7.02 17.47 7.02 4.28 0 8.2-0.9 11.74-2.71 3.58-1.85 6.96-4.71 10.15-8.56v9.56h21.12v-66.09h-21.12v32.63c0 6.02-1.26 10.72-3.78 14.1-2.52 3.39-5.98 5.08-10.38 5.08-1.81 0-3.43-0.38-4.84-1.12-1.38-0.75-2.5-1.81-3.37-3.19-0.67-1.06-1.14-2.75-1.41-5.07-0.28-2.37-0.42-6.2-0.42-11.51 0-1.81 0.02-5.41 0.06-10.8 0.04-5.43 0.06-9.93 0.06-13.51v-6.61h-21.24zm91.19 0v40.36c0 8.93 1.98 15.74 5.96 20.42 4.01 4.68 9.83 7.02 17.46 7.02 4.29 0 8.21-0.9 11.75-2.71 3.58-1.85 6.96-4.71 10.15-8.56v9.56h21.12v-66.09h-21.12v32.63c0 6.02-1.26 10.72-3.78 14.1-2.52 3.39-5.98 5.08-10.38 5.08-1.81 0-3.43-0.38-4.84-1.12-1.38-0.75-2.5-1.81-3.37-3.19-0.67-1.06-1.14-2.75-1.41-5.07-0.28-2.37-0.42-6.2-0.42-11.51 0-1.81 0.02-5.41 0.06-10.8 0.04-5.43 0.06-9.93 0.06-13.51v-6.61h-21.24zm91.19 0v40.36c0 8.93 1.98 15.74 5.96 20.42 4.01 4.68 9.83 7.02 17.46 7.02 4.29 0 8.2-0.9 11.74-2.71 3.58-1.85 6.97-4.71 10.16-8.56v9.56h21.12v-66.09h-21.12v32.63c0 6.02-1.26 10.72-3.78 14.1-2.52 3.39-5.98 5.08-10.39 5.08-1.81 0-3.42-0.38-4.84-1.12-1.37-0.75-2.49-1.81-3.36-3.19-0.67-1.06-1.14-2.75-1.42-5.07-0.27-2.37-0.41-6.2-0.41-11.51 0-1.81 0.02-5.41 0.06-10.8 0.04-5.43 0.06-9.93 0.06-13.51v-6.61h-21.24zm-238.16 13.75c4.52 0 7.96 1.65 10.32 4.95 2.4 3.31 3.6 8.11 3.6 14.4 0 6.3-1.2 11.1-3.6 14.4-2.36 3.31-5.8 4.96-10.32 4.96-4.53 0-8.01-1.65-10.45-4.96-2.4-3.34-3.6-8.14-3.6-14.4 0-6.25 1.2-11.03 3.6-14.34 2.44-3.34 5.92-5.01 10.45-5.01zm-92.25 22.6h10.97v2.42c0 4.29-1.35 7.87-4.07 10.74-2.71 2.83-6.06 4.25-10.03 4.25-3.19 0-5.69-0.75-7.5-2.25-1.77-1.53-2.65-3.64-2.65-6.31 0-2.91 1.1-5.11 3.3-6.61 2.25-1.49 5.57-2.24 9.98-2.24zm252.56 51.35c-3.54 0-6.27 0.97-8.2 2.9-1.93 1.91-2.9 4.48-2.9 7.7v23.42c0 0.31 0.16 0.47 0.49 0.47h3.37c0.33 0 0.5-0.16 0.5-0.47v-18.36h9.82c0.33 0 0.5-0.15 0.5-0.47v-2.42c-0.02-0.32-0.18-0.47-0.5-0.47h-9.82v-1.7c0-4.82 2.41-7.23 7.23-7.23 2.26 0 4.19 0.38 5.79 1.15 0.32 0.15 0.47 0.02 0.47-0.37v-2.38c0-0.26-0.15-0.46-0.47-0.62-1.61-0.76-3.71-1.15-6.28-1.15zm16.63 0.71c-0.65 0-0.97 0.32-0.97 0.96v3.14c0 0.36 0.07 0.61 0.21 0.75 0.16 0.14 0.41 0.21 0.76 0.21h3.13c0.36 0 0.61-0.07 0.75-0.21s0.21-0.39 0.21-0.75v-3.14c0-0.34-0.07-0.59-0.21-0.73-0.14-0.16-0.39-0.23-0.75-0.23h-3.13zm18.28 0c-0.32 0-0.48 0.16-0.48 0.49v23.39c0 3.19 0.92 5.76 2.74 7.71 1.83 1.94 4.3 2.92 7.39 2.92 2.25 0 4.18-0.33 5.8-0.97 0.31-0.16 0.47-0.37 0.47-0.63v-2.36c0-0.39-0.16-0.53-0.47-0.4l-0.69 0.26c-1.36 0.47-2.91 0.7-4.64 0.7-1.96 0-3.5-0.6-4.61-1.81-1.1-1.22-1.65-3.03-1.65-5.42v-12.53h9.84c0.32 0 0.48-0.16 0.48-0.49v-2.41c0-0.33-0.16-0.49-0.48-0.49h-9.84v-7.47c0-0.33-0.16-0.49-0.47-0.49h-3.39zm-296.98 7.25c-1.82 0-3.49 0.44-5 1.32-0.58 0.33-1.13 0.72-1.67 1.18-0.52 0.46-0.86 0.77-1.03 0.94-0.16 0.17-0.29 0.31-0.38 0.4l-0.45-2.64c-0.03-0.33-0.2-0.49-0.52-0.49h-2.66c-0.31 0-0.47 0.16-0.47 0.49v24.86c0 0.31 0.16 0.47 0.47 0.47h3.39c0.32 0 0.47-0.16 0.47-0.47v-17.62c0-0.1 0.31-0.53 0.92-1.3 0.62-0.77 1.54-1.59 2.78-2.45 1.24-0.88 2.57-1.32 3.98-1.32 1.42 0 2.62 0.65 3.61 1.96 1 1.3 1.51 3.22 1.51 5.77v14.96c0 0.31 0.15 0.47 0.47 0.47h3.39c0.31 0 0.47-0.16 0.47-0.47v-17.62c0-0.1 0.31-0.53 0.92-1.3s1.54-1.59 2.78-2.45c1.24-0.88 2.57-1.32 3.98-1.32s2.61 0.65 3.6 1.96c1.01 1.3 1.51 3.22 1.51 5.77v14.96c0 0.31 0.16 0.47 0.47 0.47h3.39c0.32 0 0.48-0.16 0.48-0.47v-14.96c0-3.55-0.86-6.28-2.57-8.2-1.7-1.93-3.98-2.9-6.83-2.9-1.48 0-2.89 0.35-4.24 1.04s-2.36 1.36-3.02 2.02-1.22 1.33-1.67 2.01c-0.74-1.62-1.81-2.87-3.23-3.75-1.41-0.88-3.03-1.32-4.85-1.32zm50.72 0c-3.76 0-6.79 1.17-9.1 3.51-2.29 2.33-3.44 5.69-3.44 10.09 0 4.38 1.15 7.75 3.44 10.12 2.31 2.36 5.34 3.54 9.1 3.54s6.8-1.18 9.09-3.54c2.31-2.37 3.46-5.74 3.46-10.12 0-4.4-1.15-7.76-3.46-10.09-2.29-2.34-5.33-3.51-9.09-3.51zm62.59 0c-3.71 0-6.72 1.17-9.03 3.51-2.29 2.33-3.44 5.69-3.44 10.09 0 4.38 1.15 7.76 3.44 10.15 2.31 2.37 5.22 3.55 8.72 3.55s6.25-0.69 8.24-2.07c2-1.38 3.32-3.23 3.96-5.56 0.1-0.38-0.06-0.56-0.47-0.56h-3.04c-0.2 0-0.4 0.15-0.59 0.47-1.6 2.89-4.18 4.33-7.72 4.33-2.25 0-4.1-0.72-5.56-2.16-1.46-1.45-2.33-3.63-2.59-6.55h19.74c0.64 0 0.96-0.33 0.96-0.97v-1.2c0-3.93-1.18-7.08-3.53-9.45-2.34-2.38-5.37-3.58-9.09-3.58zm51.47 0c-1.87 0-3.54 0.44-5 1.32-0.56 0.33-1.16 0.77-1.79 1.32-0.61 0.53-1 0.93-1.17 1.2l-0.45-2.64c-0.03-0.33-0.21-0.49-0.52-0.49h-2.66c-0.32 0.01-0.47 0.18-0.47 0.49v32.79c0 0.32 0.15 0.48 0.47 0.5h3.39c0.31-0.02 0.47-0.18 0.47-0.5v-8.19l0.87 0.35c0.61 0.25 1.52 0.49 2.71 0.73 1.21 0.25 2.43 0.38 3.65 0.38 3.65 0 6.61-1.18 8.88-3.54 2.3-2.35 3.44-5.73 3.44-10.12 0-4.4-1.11-7.76-3.34-10.09-2.22-2.34-5.04-3.51-8.48-3.51zm61.86 0c-3.76 0-6.79 1.17-9.1 3.51-2.29 2.33-3.44 5.69-3.44 10.09 0 4.38 1.15 7.75 3.44 10.12 2.31 2.36 5.34 3.54 9.1 3.54s6.8-1.18 9.09-3.54c2.31-2.37 3.46-5.74 3.46-10.12 0-4.4-1.15-7.76-3.46-10.09-2.29-2.34-5.33-3.51-9.09-3.51zm-136.4 0.24c-1.38 0-2.7 0.19-3.95 0.56-1.24 0.37-2.25 0.77-3.02 1.21-0.75 0.42-1.44 0.93-2.07 1.53-0.61 0.59-1.01 1-1.18 1.22l-0.38 0.54-0.44-4.1c-0.04-0.33-0.21-0.49-0.52-0.49h-2.66c-0.32 0-0.47 0.16-0.47 0.49v24.86c0 0.31 0.15 0.47 0.47 0.47h3.39c0.31 0 0.47-0.16 0.47-0.47v-16.19l0.28-0.61c0.47-0.91 1.5-1.95 3.09-3.11 0.78-0.57 1.84-1.04 3.15-1.44 1.32-0.4 2.77-0.61 4.34-0.61h1.44c0.33 0 0.49-0.16 0.49-0.49v-2.9c0-0.32-0.16-0.47-0.49-0.47h-1.94zm113.26 0c-1.38 0-2.7 0.19-3.95 0.56s-2.25 0.77-3.02 1.21c-0.75 0.42-1.44 0.93-2.07 1.53-0.61 0.59-1.01 1-1.18 1.22l-0.38 0.54-0.44-4.1c-0.04-0.33-0.21-0.49-0.52-0.49h-2.66c-0.32 0-0.48 0.16-0.48 0.49v24.86c0 0.31 0.16 0.47 0.48 0.47h3.39c0.31 0 0.47-0.16 0.47-0.47v-16.19l0.28-0.61c0.47-0.91 1.5-1.95 3.09-3.11 0.78-0.57 1.83-1.04 3.15-1.44s2.77-0.61 4.34-0.61h1.43c0.33 0 0.5-0.16 0.5-0.49v-2.9c0-0.32-0.17-0.47-0.5-0.47h-1.93zm75.05 0.47c-0.31 0-0.47 0.16-0.47 0.49v24.86c0 0.31 0.16 0.47 0.47 0.47h3.37c0.33 0 0.5-0.16 0.5-0.47v-24.86c0-0.33-0.17-0.49-0.5-0.49h-3.37zm-227.83 2.66c2.45 0 4.43 0.86 5.93 2.57 1.53 1.7 2.29 4.24 2.29 7.63s-0.76 5.96-2.29 7.7c-1.5 1.73-3.48 2.59-5.93 2.59-2.44 0-4.42-0.86-5.94-2.59-1.51-1.74-2.26-4.31-2.26-7.7s0.75-5.93 2.26-7.63c1.52-1.71 3.5-2.57 5.94-2.57zm62.61 0c2.2 0 4.09 0.78 5.68 2.33 1.58 1.54 2.45 3.58 2.59 6.1h-16.37c0.26-2.76 1.13-4.86 2.61-6.28 1.48-1.43 3.31-2.15 5.49-2.15zm51.21 0c2.31 0 4.17 0.87 5.58 2.62 1.42 1.72 2.12 4.28 2.12 7.68 0 3.39-0.76 5.94-2.3 7.65-1.54 1.7-3.55 2.54-6.04 2.54-2.48 0-4.76-0.47-6.85-1.43v-13.99c0-0.18 0.45-0.78 1.34-1.82 1.86-2.16 3.91-3.25 6.15-3.25zm62.1 0c2.45 0 4.43 0.86 5.93 2.57 1.53 1.7 2.29 4.24 2.29 7.63s-0.76 5.96-2.29 7.7c-1.5 1.73-3.48 2.59-5.93 2.59-2.44 0-4.42-0.86-5.94-2.59-1.51-1.74-2.26-4.31-2.26-7.7s0.75-5.93 2.26-7.63c1.52-1.71 3.5-2.57 5.94-2.57z"
        fill="url(#SVGID_1_)" /></svg>
